0
SECTION
2
HEADER
9
$ACADVER
1
AC1012
9
$DWGCODEPAGE
3
ansi_1252
9
$INSBASE
10
0.0
20
0.0
30
0.0
9
$EXTMIN
10
6.72730684
20
0.13064661
30
0.0
9
$EXTMAX
10
11.51350662
20
3.95611738
30
0.0
9
$LIMMIN
10
6.72730684
20
0.13064661
9
$LIMMAX
10
11.51350662
20
3.95611738
9
$CLAYER
8
0
9
$CELTYPE
6
BYLAYER
9
$CECOLOR
62
256
9
$CELTSCALE
40
1.0
9
$TEXTSTYLE
7
STANDARD
9
$DIMSTYLE
2
STANDARD
9
$LTSCALE
40
1.0
9
$TEXTSIZE
40
0.2
9
$FILLMODE
70
1
9
$REGENMODE
70
1
9
$TILEMODE
70
1
9
$PDMODE
70
0
9
$PDSIZE
40
0.0
9
$AUNITS
70
0
9
$AUPREC
70
4
9
$ANGBASE
50
0.0
9
$ANGDIR
70
0
9
$LUNITS
70
2
9
$LUPREC
70
4
9
$HANDLING
70
1
9
$HANDSEED
5
FFFFFF
0
ENDSEC
0
SECTION
2
CLASSES
0
CLASS
1
LWPOLYLINE
2
AcDbPolyline
3
ObjectDBX Classes
90
32768
280
0
281
1
0
CLASS
1
DICTIONARYVAR
2
AcDbDictionaryVar
3
ObjectDBX Classes
90
0
280
0
281
0
0
CLASS
1
XRECORD
2
AcDbXrecord
3
ObjectDBX Classes
90
32768
280
0
281
0
0
ENDSEC
0
SECTION
2
TABLES
0
TABLE
2
VPORT
5
100
330
0
100
AcDbSymbolTable
70
1
0
VPORT
5
101
330
100
100
AcDbSymbolTableRecord
100
AcDbViewportTableRecord
2
*ACTIVE
70
0
10
0.0
20
0.0
11
1.0
21
1.0
12
9.12040673
22
2.04338199
13
0.0
23
0.0
14
1.0
24
1.0
15
1.0
25
1.0
16
0.0
26
0.0
36
1.0
17
0.0
27
0.0
37
0.0
40
4.59056491
41
1.0
42
50.0
43
0.0
44
0.0
50
0.0
51
0.0
71
0
72
100
73
1
74
3
75
0
76
0
77
0
78
0
0
ENDTAB
0
TABLE
2
LTYPE
5
102
330
0
100
AcDbSymbolTable
70
4
0
LTYPE
5
103
330
102
100
AcDbSymbolTableRecord
100
AcDbLinetypeTableRecord
2
BYBLOCK
70
0
3

72
65
73
0
40
0.0
0
LTYPE
5
104
330
102
100
AcDbSymbolTableRecord
100
AcDbLinetypeTableRecord
2
BYLAYER
70
0
3

72
65
73
0
40
0.0
0
LTYPE
5
105
330
102
100
AcDbSymbolTableRecord
100
AcDbLinetypeTableRecord
2
CONTINUOUS
70
0
3
Solid line
72
65
73
0
40
0.0
0
LTYPE
5
106
330
102
100
AcDbSymbolTableRecord
100
AcDbLinetypeTableRecord
2
DASHED
70
0
3
Dashed line
72
65
73
2
40
0.75
49
0.5
74
0
49
-0.25
74
0
0
ENDTAB
0
TABLE
2
LAYER
5
107
330
0
100
AcDbSymbolTable
70
1
0
LAYER
5
108
330
107
100
AcDbSymbolTableRecord
100
AcDbLayerTableRecord
2
0
70
0
62
7
6
CONTINUOUS
0
ENDTAB
0
TABLE
2
STYLE
5
109
330
0
100
AcDbSymbolTable
70
1
0
STYLE
5
10A
330
109
100
AcDbSymbolTableRecord
100
AcDbTextStyleTableRecord
2
STANDARD
70
0
40
0.0
41
1.0
50
0.0
71
0
42
0.2
3
txt
4

0
ENDTAB
0
TABLE
2
VIEW
5
10B
330
0
100
AcDbSymbolTable
70
0
0
ENDTAB
0
TABLE
2
UCS
5
10C
330
0
100
AcDbSymbolTable
70
0
0
ENDTAB
0
TABLE
2
APPID
5
10D
330
0
100
AcDbSymbolTable
70
1
0
APPID
5
10E
330
10D
100
AcDbSymbolTableRecord
100
AcDbRegAppTableRecord
2
ACAD
70
0
0
ENDTAB
0
TABLE
2
DIMSTYLE
5
10F
330
0
100
AcDbSymbolTable
70
1
0
DIMSTYLE
105
110
330
10F
100
AcDbSymbolTableRecord
100
AcDbDimStyleTableRecord
2
STANDARD
70
0
3

4

5

6

7

40
1.0
41
0.18
42
0.0625
43
0.38
44
0.18
45
0.0
46
0.0
47
0.0
48
0.0
140
0.18
141
0.09
142
0.0
143
25.4
144
1.0
145
0.0
146
1.0
147
0.09
71
0
72
0
73
1
74
1
75
0
76
0
77
0
78
0
170
0
171
2
172
0
173
0
174
0
175
0
176
0
177
0
178
0
270
2
271
4
272
4
273
2
274
2
340
10A
275
0
280
0
281
0
282
0
283
1
284
0
285
0
286
0
287
3
288
0
0
ENDTAB
0
TABLE
2
BLOCK_RECORD
5
111
330
0
100
AcDbSymbolTable
70
2
0
BLOCK_RECORD
5
112
330
111
100
AcDbSymbolTableRecord
100
AcDbBlockTableRecord
2
*MODEL_SPACE
0
BLOCK_RECORD
5
113
330
111
100
AcDbSymbolTableRecord
100
AcDbBlockTableRecord
2
*PAPER_SPACE
0
ENDTAB
0
ENDSEC
0
SECTION
2
BLOCKS
0
BLOCK
5
114
330
112
100
AcDbEntity
8
0
100
AcDbBlockBegin
2
*MODEL_SPACE
70
0
10
0.0
20
0.0
30
0.0
3
*MODEL_SPACE
1

0
ENDBLK
5
115
330
112
100
AcDbEntity
8
0
100
AcDbBlockEnd
0
BLOCK
5
116
330
113
100
AcDbEntity
67
1
8
0
100
AcDbBlockBegin
2
*PAPER_SPACE
70
0
10
0.0
20
0.0
30
0.0
3
*PAPER_SPACE
1

0
ENDBLK
5
117
330
113
100
AcDbEntity
67
1
8
0
100
AcDbBlockEnd
0
ENDSEC
0
SECTION
2
ENTITIES
0
POINT
5
118
330
112
100
AcDbEntity
8
0
62
256
6
CONTINUOUS
370
40
100
AcDbPoint
10
7.32653984
20
3.92578893
30
0.0
0
POINT
5
119
330
112
100
AcDbEntity
8
0
62
256
6
CONTINUOUS
370
40
100
AcDbPoint
10
7.47818205
20
0.92962394
30
0.0
0
LINE
5
11A
330
112
100
AcDbEntity
8
0
62
256
6
CONTINUOUS
370
50
100
AcDbLine
10
7.32653984
20
3.92578893
30
0.0
11
7.47818205
21
0.92962394
31
0.0
0
POINT
5
11B
330
112
100
AcDbEntity
8
0
62
256
6
CONTINUOUS
370
40
100
AcDbPoint
10
11.47306870
20
1.13181356
30
0.0
0
LINE
5
11C
330
112
100
AcDbEntity
8
0
62
256
6
CONTINUOUS
370
50
100
AcDbLine
10
7.47818205
20
0.92962394
30
0.0
11
11.47306870
21
1.13181356
31
0.0
0
LINE
5
11D
330
112
100
AcDbEntity
8
0
62
256
6
CONTINUOUS
370
50
100
AcDbLine
10
7.32653984
20
3.92578893
30
0.0
11
11.47306870
21
1.13181356
31
0.0
0
ENDSEC
0
SECTION
2
OBJECTS
0
DICTIONARY
5
FFFFF0
330
0
100
AcDbDictionary
3
ACAD_GROUP
350
FFFFF1
3
ACAD_MLINESTYLE
350
FFFFF2
0
DICTIONARY
5
FFFFF1
330
FFFFF0
100
AcDbDictionary
0
DICTIONARY
5
FFFFF2
330
FFFFF0
100
AcDbDictionary
3
Standard
350
FFFFF3
0
MLINESTYLE
5
FFFFF3
330
FFFFF2
100
AcDbMlineStyle
2
Standard
70
0
3

62
256
51
90.0
52
90.0
71
0
0
ENDSEC
0
EOF

